<svg width="174" height="67" viewBox="0 0 174 67" fill="none" xmlns="http://www.w3.org/2000/svg">
<g clip-path="url(#clip0_1_530)">
<path d="M38.2493 16.6166V8.64826C38.2493 7.76816 37.5358 7.05459 36.6556 7.05459H35.0619V2.2736C35.0619 1.39349 34.3485 0.67993 33.4683 0.67993C31.212 0.67993 27.7568 0.507017 23.7007 2.93696C21.1793 2.18644 19.3961 2.2736 17.5316 2.2736C16.6514 2.2736 15.9379 2.98716 15.9379 3.86726V7.05459H14.3443C13.4641 7.05459 12.7506 7.76816 12.7506 8.64826V16.6166C12.7506 23.107 17.6257 28.4798 23.9063 29.2665V50.0836C23.9063 50.9637 24.6197 51.6772 25.4999 51.6772C26.3801 51.6772 27.0936 50.9637 27.0936 50.0836V44.5057H29.4841C34.3172 44.5057 38.2493 40.5737 38.2493 35.7406V33.3501C38.2493 32.47 37.5358 31.7564 36.6556 31.7564H32.6714C30.5543 31.7564 28.6102 32.5109 27.0936 33.7651V29.2657C33.3648 28.4891 38.2493 23.1429 38.2493 16.6166ZM35.0619 16.6166C35.0619 19.4528 33.8076 22.0144 31.8252 23.7708C31.8565 23.5151 31.8746 23.2553 31.8746 22.9913C31.8746 18.9554 30.3658 15.2659 27.8837 12.455C29.988 11.0191 32.483 10.2419 35.0619 10.2419V16.6166ZM31.8746 3.86726V7.37612C31.5801 7.43608 31.2876 7.50451 30.9976 7.5809C29.9637 6.4236 28.7846 5.43762 27.4972 4.64089C28.8888 4.13211 30.366 3.86726 31.8746 3.86726ZM19.1253 5.46093C22.2914 5.46093 25.3661 6.61703 27.7573 8.82595C26.9681 9.23323 26.2114 9.70805 25.4953 10.2464C23.6423 8.85334 21.4772 7.85432 19.1253 7.37502V5.46093ZM15.9379 16.6166V10.2419C22.9679 10.2419 28.6873 15.9612 28.6873 22.9913C28.6873 24.7722 27.2166 26.2233 25.4162 26.1771C19.8174 26.0388 15.9379 21.5907 15.9379 16.6166ZM32.6714 34.9437H35.0619V35.7406C35.0619 38.8162 32.5598 41.3184 29.4841 41.3184H27.0936V40.5216C27.0936 37.446 29.5959 34.9437 32.6714 34.9437Z" fill="white"/>
</g>
<path d="M57.8516 21.4587H51.3935V25.5184H59.0216V28.6772H47.2869V11.6428H59.045V14.8133H51.3935V18.4051H57.8516V21.4587ZM67.3627 17.3053L70.1472 11.6428H74.8387L70.077 20.0898L74.9674 28.6772H70.2291L67.3627 22.9094L64.4963 28.6772H59.7697L64.6484 20.0898L59.8984 11.6428H64.5782L67.3627 17.3053ZM80.7346 22.8977V28.6772H76.6281V11.6428H83.4255C84.728 11.6428 85.8785 11.8846 86.8768 12.3681C87.883 12.8439 88.6591 13.5264 89.205 14.4155C89.7588 15.2969 90.0357 16.2992 90.0357 17.4223C90.0357 19.0837 89.439 20.4135 88.2457 21.4119C87.0601 22.4024 85.43 22.8977 83.3553 22.8977H80.7346ZM80.7346 19.7271H83.4255C84.2211 19.7271 84.8255 19.5282 85.2389 19.1304C85.6601 18.7327 85.8707 18.1711 85.8707 17.4457C85.8707 16.6502 85.6562 16.0145 85.2272 15.5387C84.7982 15.0629 84.2133 14.8211 83.4723 14.8133H80.7346V19.7271ZM96.657 25.5184H103.805V28.6772H92.5505V11.6428H96.657V25.5184ZM119.529 20.511C119.529 22.1723 119.221 23.6426 118.605 24.9217C117.989 26.2009 117.111 27.1875 115.972 27.8817C114.841 28.5681 113.55 28.9112 112.1 28.9112C110.649 28.9112 109.362 28.5798 108.239 27.9168C107.116 27.246 106.238 26.2905 105.607 25.0504C104.983 23.8103 104.655 22.3868 104.624 20.7801V19.8207C104.624 18.1516 104.928 16.6814 105.536 15.41C106.153 14.1309 107.03 13.1442 108.169 12.45C109.315 11.7559 110.618 11.4088 112.076 11.4088C113.519 11.4088 114.806 11.752 115.937 12.4383C117.068 13.1247 117.946 14.1036 118.57 15.3749C119.201 16.6385 119.521 18.0892 119.529 19.7271V20.511ZM115.352 19.7973C115.352 18.1048 115.068 16.8217 114.498 15.9482C113.937 15.0668 113.129 14.6261 112.076 14.6261C110.017 14.6261 108.929 16.1705 108.812 19.2591L108.8 20.511C108.8 22.1801 109.077 23.4632 109.631 24.3601C110.185 25.2571 111.008 25.7056 112.1 25.7056C113.137 25.7056 113.937 25.2649 114.498 24.3835C115.06 23.5022 115.344 22.2347 115.352 20.5812V19.7973ZM128.291 22.6637H126.068V28.6772H121.962V11.6428H128.666C130.686 11.6428 132.265 12.0912 133.404 12.9882C134.543 13.8852 135.112 15.1526 135.112 16.7905C135.112 17.9761 134.87 18.9589 134.387 19.7388C133.911 20.5188 133.162 21.1506 132.14 21.6341L135.697 28.5018V28.6772H131.298L128.291 22.6637ZM126.068 19.4931H128.666C129.446 19.4931 130.031 19.2903 130.421 18.8848C130.818 18.4714 131.017 17.8981 131.017 17.1649C131.017 16.4318 130.818 15.8585 130.421 15.4451C130.023 15.0239 129.438 14.8133 128.666 14.8133H126.068V19.4931ZM148.472 21.4587H142.014V25.5184H149.642V28.6772H137.908V11.6428H149.666V14.8133H142.014V18.4051H148.472V21.4587Z" fill="#DD2242"/>
<path d="M51.6626 50.6772H47.5677V33.6428H51.6626V50.6772ZM69.0591 50.6772H64.976L58.939 40.0775V50.6772H54.8325V33.6428H58.939L64.9643 44.2425V33.6428H69.0591V50.6772ZM71.9717 50.6772V33.6428H77.4587C78.9641 33.6428 80.3173 33.9859 81.5185 34.6723C82.7196 35.3509 83.6556 36.3142 84.3264 37.5621C85.0049 38.8022 85.3481 40.1945 85.3559 41.7388V42.5227C85.3559 44.0826 85.0244 45.4827 84.3615 46.7228C83.7063 47.9552 82.7781 48.9223 81.577 49.6243C80.3836 50.3185 79.0499 50.6694 77.5757 50.6772H71.9717ZM76.0782 36.8133V47.5184H77.5055C78.6833 47.5184 79.5881 47.1011 80.2198 46.2665C80.8516 45.4242 81.1675 44.1762 81.1675 42.5227V41.7856C81.1675 40.1399 80.8516 38.8997 80.2198 38.0652C79.5881 37.2306 78.6677 36.8133 77.4587 36.8133H76.0782ZM102.203 42.511C102.203 44.1723 101.894 45.6426 101.278 46.9217C100.662 48.2009 99.7847 49.1875 98.6459 49.8817C97.515 50.5681 96.2241 50.9112 94.7734 50.9112C93.3227 50.9112 92.0357 50.5798 90.9126 49.9168C89.7894 49.246 88.9119 48.2905 88.2802 47.0504C87.6562 45.8103 87.3286 44.3868 87.2974 42.7801V41.8207C87.2974 40.1516 87.6016 38.6814 88.21 37.41C88.8261 36.1309 89.7036 35.1442 90.8424 34.45C91.9889 33.7559 93.2915 33.4088 94.75 33.4088C96.1929 33.4088 97.4799 33.752 98.6108 34.4383C99.7418 35.1247 100.619 36.1036 101.243 37.3749C101.875 38.6385 102.195 40.0892 102.203 41.7271V42.511ZM98.0259 41.7973C98.0259 40.1048 97.7412 38.8217 97.1718 37.9482C96.6102 37.0668 95.803 36.6261 94.75 36.6261C92.6909 36.6261 91.6028 38.1705 91.4858 41.2591L91.4741 42.511C91.4741 44.1801 91.751 45.4632 92.3048 46.3601C92.8586 47.2571 93.6814 47.7056 94.7734 47.7056C95.8108 47.7056 96.6102 47.2649 97.1718 46.3835C97.7334 45.5022 98.0181 44.2347 98.0259 42.5812V41.7973ZM118.862 50.6772H114.779L108.742 40.0775V50.6772H104.635V33.6428H108.742L114.767 44.2425V33.6428H118.862V50.6772ZM132.339 43.4587H125.881V47.5184H133.509V50.6772H121.775V33.6428H133.533V36.8133H125.881V40.4051H132.339V43.4587ZM144.284 46.1495C144.284 45.549 144.069 45.081 143.64 44.7456C143.219 44.4102 142.474 44.0631 141.406 43.7043C140.337 43.3456 139.464 42.9985 138.785 42.6631C136.578 41.5789 135.474 40.0892 135.474 38.1939C135.474 37.2501 135.747 36.4194 136.293 35.7019C136.847 34.9765 137.627 34.4149 138.633 34.0171C139.639 33.6116 140.77 33.4088 142.026 33.4088C143.25 33.4088 144.346 33.6272 145.313 34.0639C146.288 34.5007 147.045 35.1247 147.583 35.9359C148.121 36.7392 148.39 37.6596 148.39 38.697H144.296C144.296 38.0028 144.081 37.4646 143.652 37.0824C143.231 36.7002 142.658 36.5091 141.932 36.5091C141.199 36.5091 140.618 36.6729 140.189 37.0005C139.768 37.3203 139.557 37.7298 139.557 38.229C139.557 38.6658 139.791 39.0635 140.259 39.4223C140.727 39.7733 141.55 40.1399 142.728 40.5221C143.906 40.8965 144.873 41.302 145.629 41.7388C147.47 42.7996 148.39 44.262 148.39 46.1261C148.39 47.6159 147.829 48.7858 146.706 49.636C145.583 50.4862 144.042 50.9112 142.084 50.9112C140.704 50.9112 139.452 50.6655 138.329 50.1742C137.213 49.675 136.371 48.9964 135.802 48.1385C135.24 47.2727 134.959 46.2782 134.959 45.1551H139.078C139.078 46.0676 139.312 46.7423 139.78 47.1791C140.255 47.6081 141.024 47.8226 142.084 47.8226C142.763 47.8226 143.297 47.6783 143.687 47.3897C144.085 47.0933 144.284 46.6799 144.284 46.1495ZM155.187 50.6772H151.092V33.6428H155.187V50.6772ZM168.243 47.495H162.616L161.633 50.6772H157.246L163.493 33.6428H167.354L173.648 50.6772H169.238L168.243 47.495ZM163.599 44.3244H167.26L165.424 38.4162L163.599 44.3244Z" fill="white"/>
<defs>
<clipPath id="clip0_1_530">
<rect width="51" height="51" fill="white" transform="translate(0 0.677246)"/>
</clipPath>
</defs>
</svg>
