<svg width="149" height="60" viewBox="0 0 149 60" xmlns="http://www.w3.org/2000/svg">
	<g clip-path="url(#clip0_1_334)">
		<path d="M31.9819 13.3206V6.66143C31.9819 5.92592 31.3853 5.32959 30.6493 5.32959H29.3168V1.33408C29.3168 0.598573 28.7202 0.002243 27.9843 0.002243C26.0977 0.002243 23.2087 -0.142261 19.8172 1.88846C17.709 1.26125 16.2179 1.33408 14.659 1.33408C13.923 1.33408 13.3264 1.93041 13.3264 2.66592V5.32959H11.9939C11.2579 5.32959 10.6614 5.92592 10.6614 6.66143V13.3206C10.6614 18.7447 14.7377 23.2348 19.9891 23.8922V41.2892C19.9891 42.0247 20.5856 42.621 21.3216 42.621C22.0576 42.621 22.6542 42.0247 22.6542 41.2892V36.6278H24.6529C28.6941 36.6278 31.9819 33.3417 31.9819 29.3027V27.3049C31.9819 26.5694 31.3853 25.9731 30.6493 25.9731H27.318C25.5478 25.9731 23.9222 26.6036 22.6542 27.6518V23.8916C27.8977 23.2426 31.9819 18.7747 31.9819 13.3206ZM29.3168 13.3206C29.3168 15.6909 28.268 17.8316 26.6104 19.2994C26.6366 19.0857 26.6517 18.8686 26.6517 18.648C26.6517 15.2752 25.3902 12.1918 23.3148 9.84277C25.0743 8.64279 27.1604 7.99327 29.3168 7.99327V13.3206ZM26.6517 2.66592V5.59829C26.4055 5.6484 26.161 5.70559 25.9184 5.76943C25.054 4.80227 24.0681 3.97828 22.9916 3.31244C24.1552 2.88725 25.3903 2.66592 26.6517 2.66592ZM15.9915 3.99776C18.6388 3.99776 21.2097 4.96392 23.2091 6.80993C22.5492 7.1503 21.9165 7.5471 21.3177 7.99701C19.7684 6.83282 17.9581 5.99793 15.9915 5.59737V3.99776ZM13.3264 13.3206V7.99327C19.2045 7.99327 23.9867 12.7729 23.9867 18.648C23.9867 20.1363 22.757 21.349 21.2516 21.3104C16.5702 21.1949 13.3264 17.4775 13.3264 13.3206ZM27.318 28.6367H29.3168V29.3027C29.3168 31.8729 27.2247 33.9641 24.6529 33.9641H22.6542V33.2982C22.6542 30.7279 24.7464 28.6367 27.318 28.6367Z" fill="white" />
	</g>
	<path d="M47.7304 20.1591H42.113V23.6904H48.748V26.438H38.541V11.6211H48.7684V14.3789H42.113V17.5031H47.7304V20.1591ZM56.0033 16.5465L58.4253 11.6211H62.506L58.3642 18.9685L62.6179 26.438H58.4965L56.0033 21.421L53.51 26.438H49.3988L53.6423 18.9685L49.5107 11.6211H53.5813L56.0033 16.5465ZM67.6344 21.4108V26.438H64.0625V11.6211H69.975C71.1079 11.6211 72.1086 11.8314 72.977 12.252C73.8522 12.6659 74.5272 13.2595 75.0021 14.0329C75.4838 14.7995 75.7247 15.6713 75.7247 16.6483C75.7247 18.0933 75.2057 19.25 74.1677 20.1184C73.1364 20.98 71.7185 21.4108 69.9139 21.4108H67.6344ZM67.6344 18.653H69.975C70.667 18.653 71.1927 18.48 71.5523 18.134C71.9187 17.788 72.1018 17.2996 72.1018 16.6686C72.1018 15.9766 71.9153 15.4237 71.5421 15.0099C71.169 14.596 70.6602 14.3857 70.0157 14.3789H67.6344V18.653ZM81.484 23.6904H87.7018V26.438H77.912V11.6211H81.484V23.6904ZM101.378 19.3348C101.378 20.7799 101.11 22.0587 100.574 23.1714C100.038 24.284 99.2752 25.1422 98.2847 25.746C97.301 26.343 96.1782 26.6415 94.9163 26.6415C93.6545 26.6415 92.535 26.3532 91.5581 25.7765C90.5812 25.1931 89.8179 24.362 89.2684 23.2833C88.7257 22.2046 88.4407 20.9665 88.4136 19.5689V18.7344C88.4136 17.2826 88.6782 16.0038 89.2074 14.8979C89.7433 13.7853 90.5065 12.9271 91.4971 12.3233C92.4943 11.7195 93.6273 11.4176 94.896 11.4176C96.1511 11.4176 97.2705 11.7161 98.2542 12.3131C99.2379 12.9101 100.001 13.7615 100.544 14.8674C101.093 15.9664 101.372 17.2283 101.378 18.653V19.3348ZM97.7454 18.7141C97.7454 17.2419 97.4978 16.1259 97.0025 15.366C96.514 14.5994 95.8119 14.2161 94.896 14.2161C93.1049 14.2161 92.1585 15.5594 92.0568 18.246L92.0466 19.3348C92.0466 20.7867 92.2874 21.9027 92.7691 22.6829C93.2508 23.4631 93.9665 23.8532 94.9163 23.8532C95.8186 23.8532 96.514 23.4699 97.0025 22.7032C97.491 21.9366 97.7386 20.8342 97.7454 19.3959V18.7141ZM109 21.2073H107.066V26.438H103.495V11.6211H109.326C111.083 11.6211 112.457 12.0112 113.447 12.7914C114.438 13.5716 114.933 14.674 114.933 16.0987C114.933 17.1299 114.723 17.9848 114.302 18.6632C113.888 19.3416 113.237 19.8912 112.348 20.3118L115.442 26.2853V26.438H111.615L109 21.2073ZM107.066 18.4495H109.326C110.004 18.4495 110.513 18.2731 110.852 17.9203C111.198 17.5607 111.371 17.0621 111.371 16.4244C111.371 15.7867 111.198 15.288 110.852 14.9284C110.506 14.5621 109.997 14.3789 109.326 14.3789H107.066V18.4495ZM126.554 20.1591H120.936V23.6904H127.571V26.438H117.364V11.6211H127.592V14.3789H120.936V17.5031H126.554V20.1591ZM42.347 43.438H38.7853V28.6211H42.347V43.438ZM57.4788 43.438H53.9273L48.6762 34.2181V43.438H45.1043V28.6211H48.6762L53.9171 37.841V28.6211H57.4788V43.438ZM60.0122 43.438V28.6211H64.785C66.0944 28.6211 67.2714 28.9196 68.3162 29.5166C69.361 30.1069 70.1751 30.9447 70.7586 32.0302C71.3488 33.1089 71.6473 34.3199 71.6541 35.6632V36.345C71.6541 37.7019 71.3657 38.9197 70.7891 39.9984C70.2192 41.0703 69.4119 41.9115 68.3671 42.5221C67.3291 43.1259 66.169 43.4312 64.8868 43.438H60.0122ZM63.5842 31.3789V40.6904H64.8257C65.8501 40.6904 66.6371 40.3274 67.1866 39.6015C67.7362 38.8688 68.0109 37.7833 68.0109 36.345V35.7039C68.0109 34.2724 67.7362 33.1937 67.1866 32.4678C66.6371 31.7419 65.8366 31.3789 64.785 31.3789H63.5842ZM86.3076 36.3348C86.3076 37.7799 86.0396 39.0587 85.5037 40.1714C84.9677 41.284 84.2045 42.1422 83.214 42.746C82.2302 43.343 81.1074 43.6415 79.8456 43.6415C78.5837 43.6415 77.4643 43.3532 76.4873 42.7765C75.5104 42.1931 74.7472 41.362 74.1976 40.2833C73.6549 39.2046 73.37 37.9665 73.3428 36.5689V35.7344C73.3428 34.2826 73.6074 33.0038 74.1366 31.8979C74.6725 30.7853 75.4358 29.9271 76.4263 29.3233C77.4236 28.7195 78.5566 28.4176 79.8252 28.4176C81.0803 28.4176 82.1997 28.7161 83.1834 29.3131C84.1672 29.9101 84.9304 30.7615 85.4731 31.8674C86.0227 32.9664 86.3008 34.2283 86.3076 35.653V36.3348ZM82.6746 35.7141C82.6746 34.2419 82.427 33.1259 81.9317 32.366C81.4433 31.5994 80.7411 31.2161 79.8252 31.2161C78.0342 31.2161 77.0878 32.5594 76.986 35.246L76.9758 36.3348C76.9758 37.7867 77.2167 38.9027 77.6983 39.6829C78.18 40.4631 78.8958 40.8532 79.8456 40.8532C80.7479 40.8532 81.4433 40.4699 81.9317 39.7032C82.4202 38.9366 82.6678 37.8342 82.6746 36.3959V35.7141ZM100.798 43.438H97.2467L91.9957 34.2181V43.438H88.4238V28.6211H91.9957L97.2366 37.841V28.6211H100.798V43.438ZM112.521 37.1591H106.904V40.6904H113.539V43.438H103.332V28.6211H113.559V31.3789H106.904V34.5031H112.521V37.1591ZM122.911 39.4997C122.911 38.9773 122.724 38.5703 122.351 38.2785C121.985 37.9868 121.337 37.6849 120.407 37.3728C119.478 37.0608 118.718 36.7589 118.128 36.4671C116.208 35.5241 115.248 34.2283 115.248 32.5797C115.248 31.7588 115.485 31.0363 115.96 30.4122C116.442 29.7812 117.12 29.2927 117.995 28.9467C118.871 28.594 119.854 28.4176 120.947 28.4176C122.012 28.4176 122.965 28.6075 123.806 28.9875C124.654 29.3674 125.312 29.9101 125.78 30.6157C126.248 31.3145 126.483 32.115 126.483 33.0173H122.921C122.921 32.4135 122.734 31.9454 122.361 31.613C121.995 31.2805 121.496 31.1143 120.865 31.1143C120.227 31.1143 119.722 31.2568 119.349 31.5417C118.983 31.8199 118.799 32.1761 118.799 32.6103C118.799 32.9902 119.003 33.3362 119.41 33.6483C119.817 33.9536 120.533 34.2724 121.557 34.6048C122.582 34.9305 123.423 35.2833 124.081 35.6632C125.682 36.5859 126.483 37.8579 126.483 39.4794C126.483 40.7752 125.994 41.7928 125.017 42.5323C124.04 43.2718 122.7 43.6415 120.997 43.6415C119.797 43.6415 118.708 43.4278 117.731 43.0004C116.761 42.5662 116.028 41.976 115.533 41.2297C115.044 40.4766 114.8 39.6116 114.8 38.6347H118.382C118.382 39.4285 118.586 40.0153 118.993 40.3952C119.407 40.7684 120.075 40.9549 120.997 40.9549C121.588 40.9549 122.052 40.8294 122.392 40.5784C122.738 40.3206 122.911 39.961 122.911 39.4997ZM132.395 43.438H128.833V28.6211H132.395V43.438ZM143.751 40.67H138.856L138.001 43.438H134.185L139.619 28.6211H142.977L148.452 43.438H144.616L143.751 40.67ZM139.711 37.9122H142.896L141.298 32.7731L139.711 37.9122Z" fill="url(#paint0_linear_1_334)" />
	<defs>
		<linearGradient id="paint0_linear_1_334" x1="93.1189" y1="24.5002" x2="93.1189" y2="51.5002" gradientUnits="userSpaceOnUse">
			<stop stop-color="white" />
			<stop offset="1" stop-color="white" stop-opacity="0" />
		</linearGradient>
		<clipPath id="clip0_1_334">
			<rect width="42.6432" height="42.621" fill="white" />
		</clipPath>
	</defs>
</svg>
