<svg width="32" height="32" viewBox="0 0 32 32" fill="none" xmlns="http://www.w3.org/2000/svg">
<path fill-rule="evenodd" clip-rule="evenodd" d="M25.269 13.8733H16.5833C16.5833 14.7766 16.5833 16.5831 16.5778 17.4864H21.6109C21.418 18.3897 20.7342 19.6543 19.768 20.2911C19.7671 20.2902 19.7662 20.2966 19.7643 20.2957C18.4797 21.1439 16.7845 21.3363 15.5257 21.0833C13.5527 20.6913 11.9913 19.2605 11.3573 17.4431C11.361 17.4404 11.3638 17.4151 11.3665 17.4133C10.9697 16.286 10.9697 14.7766 11.3665 13.8733H11.3656C11.8769 12.213 13.4854 10.6982 15.4612 10.2836C17.0503 9.94668 18.8433 10.3116 20.1621 11.5455C20.3374 11.3739 22.5891 9.17527 22.758 8.99642C18.2527 4.91626 11.0389 6.35159 8.33964 11.6205H8.33872C8.33872 11.6205 8.33964 11.6205 8.33411 11.6304C6.99877 14.2183 7.05414 17.2678 8.34334 19.732C8.33964 19.7347 8.33688 19.7365 8.33411 19.7392C9.50241 22.0065 11.6286 23.7453 14.1904 24.4074C16.9118 25.121 20.3752 24.6333 22.6952 22.5349C22.6962 22.5358 22.6971 22.5367 22.698 22.5376C24.6636 20.7672 25.8873 17.7511 25.269 13.8733Z" fill="white"/>
</svg>
