<svg width="32" height="32" viewBox="0 0 32 32" fill="none" xmlns="http://www.w3.org/2000/svg">
<path fill-rule="evenodd" clip-rule="evenodd" d="M26.3291 24.7157H22.3564V17.4811C22.3564 15.4965 21.5152 14.3894 20.0065 14.3894C18.3648 14.3894 17.3905 15.543 17.3905 17.4811V24.7157H13.4177V11.2781H17.3905V12.7893C17.3905 12.7893 18.6369 10.5132 21.4456 10.5132C24.2554 10.5132 26.3291 12.2973 26.3291 15.9895C26.3291 19.6808 26.3291 24.7157 26.3291 24.7157ZM7.608 7.93055C6.53792 7.93055 5.6709 7.06314 5.6709 5.99344C5.6709 4.92454 6.53792 4.05713 7.608 4.05713C8.6773 4.05713 9.54432 4.92454 9.54432 5.99344C9.54511 7.06314 8.6773 7.93055 7.608 7.93055ZM5.6709 24.7157H9.54432V11.8043H5.6709V24.7157Z" fill="white"/>
</svg>
